<svg width="156" height="27" viewBox="0 0 156 27" fill="none" xmlns="http://www.w3.org/2000/svg">
<g id="&#236;&#158;&#144;&#236;&#130;&#176; 2 1" clip-path="url(#clip0_127_835)">
<g id="&#235;&#160;&#136;&#236;&#157;&#180;&#236;&#150;&#180; 2">
<g id="&#235;&#160;&#136;&#236;&#157;&#180;&#236;&#150;&#180; 1">
<path id="Vector" d="M153.694 15.2939C153.058 14.6568 152.303 14.1515 151.472 13.8068C150.642 13.462 149.751 13.2846 148.852 13.2846C147.953 13.2846 147.063 13.462 146.232 13.8068C145.402 14.1515 144.647 14.6568 144.011 15.2939L142.235 17.0727L140.455 15.2939L138.667 13.5021L140.455 11.7061C141.413 10.7472 142.066 9.52517 142.33 8.19468C142.595 6.8642 142.46 5.485 141.942 4.23156C141.423 2.97812 140.546 1.90675 139.42 1.15296C138.294 0.399168 136.971 -0.00317383 135.616 -0.00317383C134.262 -0.00317383 132.938 0.399168 131.813 1.15296C130.687 1.90675 129.809 2.97812 129.291 4.23156C128.773 5.485 128.638 6.8642 128.902 8.19468C129.167 9.52517 129.819 10.7472 130.777 11.7061L132.566 13.5021L133.126 14.0637C131.252 14.7752 128.98 16.3869 128.788 20.0175C128.767 21.3805 129.152 22.7188 129.894 23.8616C130.636 25.0044 131.701 25.8997 132.953 26.4333C134.205 26.9669 135.588 27.1146 136.924 26.8574C138.26 26.6003 139.49 25.9501 140.455 24.9897L142.231 23.2065L144.007 24.9854C144.639 25.6377 145.394 26.1576 146.228 26.5148C147.063 26.8721 147.96 27.0596 148.867 27.0664C149.775 27.0733 150.674 26.8993 151.514 26.5547C152.354 26.21 153.117 25.7016 153.758 25.0589C154.4 24.4163 154.908 23.6522 155.252 22.8111C155.597 21.9701 155.771 21.0688 155.764 20.1598C155.758 19.2507 155.571 18.352 155.215 17.5159C154.859 16.6799 154.34 15.9231 153.689 15.2896L153.694 15.2939ZM133.841 5.07938C134.072 4.8386 134.349 4.64648 134.656 4.51423C134.963 4.38199 135.292 4.31227 135.626 4.30917C135.96 4.30606 136.291 4.36962 136.6 4.49614C136.909 4.62265 137.189 4.80959 137.425 5.04601C137.661 5.28244 137.848 5.56361 137.974 5.87311C138.1 6.1826 138.164 6.51421 138.161 6.84855C138.158 7.18289 138.088 7.51326 137.956 7.82035C137.824 8.12745 137.632 8.4051 137.392 8.63709L135.633 10.4159L133.858 8.63709C133.387 8.16525 133.123 7.5254 133.123 6.85824C133.123 6.19107 133.387 5.55122 133.858 5.07938H133.841ZM137.396 21.9249C137.031 22.2914 136.562 22.5362 136.053 22.6258C135.544 22.7155 135.02 22.6456 134.552 22.4257C134.084 22.2059 133.695 21.8467 133.438 21.3973C133.182 20.9479 133.07 20.4301 133.118 19.9146C133.188 19.2969 133.473 18.7235 133.922 18.2943C134.376 17.8399 134.992 17.5847 135.633 17.5847C136.275 17.5847 136.891 17.8399 137.345 18.2943L139.172 20.1461L137.396 21.9249ZM150.63 21.9249C150.159 22.3966 149.52 22.6616 148.854 22.6616C148.189 22.6616 147.55 22.3966 147.079 21.9249L145.299 20.1461L147.079 18.3672C147.31 18.1264 147.588 17.9343 147.894 17.8021C148.201 17.6698 148.53 17.6001 148.864 17.597C149.198 17.5939 149.529 17.6574 149.838 17.784C150.147 17.9105 150.427 18.0974 150.663 18.3338C150.899 18.5703 151.086 18.8514 151.212 19.1609C151.339 19.4704 151.402 19.802 151.399 20.1364C151.396 20.4707 151.326 20.8011 151.194 21.1082C151.062 21.4153 150.87 21.6929 150.63 21.9249Z" fill="#007DF3"/>
<path id="Vector_2" d="M11.3812 11.509C7.46624 10.3817 5.48523 9.4301 5.48523 7.2569C5.48523 5.3323 7.24803 4.1364 10.0805 4.1364C12.5386 4.1711 14.9425 4.8653 17.0419 6.14672L18.9373 3.11624C16.2225 1.37488 13.0645 0.453737 9.84089 0.462959C4.34711 0.462959 0.800107 3.1591 0.800107 7.32119C0.800107 11.1789 3.2261 13.4464 8.92954 14.9638C12.3525 15.9111 15.1892 16.897 15.1892 19.3788C15.1892 21.522 13.2724 22.7351 9.93074 22.7351C7.08516 22.7344 4.29946 21.9163 1.904 20.3775L0 23.5752C3.00334 25.5193 6.50478 26.5496 10.0805 26.5414C16.0021 26.5414 19.9813 23.6566 19.9813 19.3574C19.9813 15.5768 17.3285 13.155 11.3812 11.509Z" fill="#525252"/>
<path id="Vector_3" d="M50.5994 0.462952H46.1924V26.5414H50.5994V0.462952Z" fill="#525252"/>
<path id="Vector_4" d="M67.6586 1.18738H63.1104L53.4834 26.5371H58.0316L60.9967 18.7487H70.0846L73.0497 26.5371H77.6021L67.9538 1.18738H67.6586ZM62.49 14.771L65.5321 6.77684L68.5742 14.771H62.49Z" fill="#525252"/>
<path id="Vector_5" d="M32.7058 6.09955C30.6885 6.1004 28.7168 6.70044 27.04 7.8238C25.3631 8.94717 24.0564 10.5434 23.285 12.4107C22.5136 14.278 22.3122 16.3326 22.7063 18.3145C23.1004 20.2965 24.0722 22.1169 25.4989 23.5456C26.9256 24.9743 28.7431 25.9471 30.7217 26.341C32.7002 26.735 34.7509 26.5324 36.6145 25.7588C38.4781 24.9852 40.071 23.6755 41.1916 21.9951C42.3122 20.3147 42.9104 18.3392 42.9104 16.3183C42.907 13.6084 41.8306 11.0106 39.9175 9.0948C38.0044 7.17903 35.4108 6.10182 32.7058 6.09955ZM32.7058 22.3878C31.5098 22.387 30.3408 22.031 29.3466 21.3649C28.3525 20.6988 27.5777 19.7524 27.1202 18.6453C26.6627 17.5383 26.543 16.3202 26.7762 15.145C27.0094 13.9698 27.5851 12.8902 28.4306 12.0427C29.276 11.1951 30.3532 10.6176 31.5261 10.3831C32.699 10.1486 33.915 10.2677 35.0204 10.7252C36.1258 11.1828 37.071 11.9583 37.7366 12.9538C38.4022 13.9493 38.7584 15.1201 38.7601 16.3183C38.7578 17.9258 38.1191 19.4668 36.9841 20.6031C35.849 21.7393 34.3104 22.3781 32.7058 22.3793V22.3878Z" fill="#525252"/>
<path id="Vector_6" d="M119.336 0.462952V8.10988C118.038 7.1502 116.532 6.51247 114.941 6.24908C113.35 5.98569 111.719 6.10415 110.183 6.59472C108.646 7.08529 107.248 7.93399 106.103 9.07112C104.957 10.2082 104.097 11.6014 103.593 13.1361C103.089 14.6708 102.956 16.3034 103.205 17.8997C103.453 19.496 104.076 21.0105 105.022 22.3189C105.968 23.6273 107.21 24.6922 108.647 25.4262C110.083 26.1603 111.673 26.5424 113.286 26.5414C115.466 26.5423 117.588 25.8371 119.336 24.5311V26.5414H123.743V0.462952H119.336ZM113.286 22.3793C112.089 22.3793 110.919 22.0238 109.924 21.3578C108.93 20.6918 108.154 19.7453 107.696 18.6378C107.238 17.5303 107.118 16.3116 107.352 15.1359C107.585 13.9602 108.162 12.8802 109.008 12.0326C109.854 11.1849 110.932 10.6077 112.105 10.3738C113.279 10.14 114.495 10.26 115.601 10.7187C116.706 11.1775 117.651 11.9543 118.316 12.951C118.981 13.9478 119.336 15.1196 119.336 16.3183C119.335 17.9254 118.697 19.4664 117.562 20.6028C116.428 21.7392 114.89 22.3782 113.286 22.3793Z" fill="#525252"/>
<path id="Vector_7" d="M90.7969 6.09955C88.6166 6.09861 86.4944 6.80378 84.7469 8.10987V6.09955H80.3398V26.5371H84.7469V16.3183C84.7469 14.7108 85.3843 13.1692 86.5189 12.0326C87.6535 10.8959 89.1923 10.2574 90.7969 10.2574C92.4014 10.2574 93.9403 10.8959 95.0749 12.0326C96.2095 13.1692 96.8469 14.7108 96.8469 16.3183V26.5371H100.997V16.3183C100.995 13.6088 99.9195 11.011 98.007 9.09506C96.0946 7.17917 93.5015 6.10182 90.7969 6.09955Z" fill="#525252"/>
</g>
</g>
</g>
<defs>
<clipPath id="clip0_127_835">
<rect width="155.7" height="27" fill="white"/>
</clipPath>
</defs>
</svg>
